<svg xmlns="http://www.w3.org/2000/svg" viewBox="0 0 150 40">
	<g fill="none" fill-rule="evenodd" stroke="none" stroke-width="1">
		<g transform="translate(-176 -326)">
			<g transform="translate(176 326)">
				<g fill-rule="nonzero">
					<g fill="#333333" transform="translate(0 19.78)">
						<path d="M.132.571h6.575c.044.132.044.264.044.396v.791c0 .132-.044.264-.044.396H1.885v3.692h3.99c.043.132.043.264.043.396v.791c0 .132-.044.264-.044.396H1.885v5.758c-.131.044-.263.044-.438.044H.482c-.175 0-.307-.044-.438-.044V.57h.088zM12.713 13.363c-.92 0-1.71-.176-2.367-.484a4.567 4.567 0 01-1.666-1.363c-.438-.57-.745-1.274-.964-2.065-.22-.792-.307-1.67-.307-2.594 0-.967.087-1.802.307-2.593.219-.791.526-1.495.964-2.066.439-.572 1.008-1.011 1.666-1.363.658-.308 1.447-.483 2.367-.483.921 0 1.71.175 2.368.483a4.567 4.567 0 011.666 1.363c.438.571.745 1.275.964 2.066.22.79.307 1.67.307 2.593 0 .967-.088 1.802-.307 2.594-.22.79-.526 1.494-.964 2.065-.439.572-1.009 1.011-1.666 1.363-.658.308-1.447.484-2.368.484zm0-1.539c.57 0 1.096-.132 1.49-.351.44-.22.79-.572 1.053-1.011.263-.44.482-.967.614-1.539.131-.615.219-1.319.219-2.066 0-.747-.088-1.45-.22-2.066-.13-.615-.35-1.143-.613-1.538a2.48 2.48 0 00-1.052-.967 3.244 3.244 0 00-1.49-.352c-.57 0-1.097.132-1.491.352-.439.22-.79.571-1.052.967-.263.44-.483.967-.614 1.538a9.952 9.952 0 00-.22 2.066c0 .791.088 1.45.22 2.066.131.615.35 1.143.614 1.539.263.44.613.747 1.052 1.01.394.22.92.352 1.49.352zM19.245.527c.263-.043.483-.043.702-.087.219-.044.394-.044.614-.044.219 0 .394-.044.657-.044h.745a7.66 7.66 0 011.754.175c.57.132 1.096.308 1.534.616.439.308.833.703 1.096 1.187.307.483.439 1.143.439 1.89 0 .44-.088.879-.22 1.23-.131.396-.35.704-.57 1.012-.219.307-.482.527-.788.747-.307.22-.57.395-.877.527l-.22.088 3.64 5.319c-.308.044-.658.044-1.053.044-.307 0-.614 0-.964-.044L21.7 7.297v-.088l.132-.044c.307-.088.657-.176 1.008-.352a3.11 3.11 0 00.965-.571c.307-.22.526-.484.745-.835.22-.308.307-.704.307-1.187 0-.835-.263-1.45-.745-1.89-.483-.396-1.184-.616-2.017-.616h-.57c-.175 0-.35.044-.57.044v11.253c-.131 0-.263.044-.438.044h-.877c-.175 0-.307 0-.438-.044V.527h.043zM33.142 11.253c.395.132.79.263 1.228.351.438.088.92.176 1.534.176.965 0 1.666-.176 2.148-.571.483-.396.702-.923.702-1.583 0-.307-.044-.615-.132-.835-.087-.22-.263-.44-.438-.615a5.5 5.5 0 00-.745-.484c-.307-.132-.658-.307-1.053-.44l-1.008-.395a4.53 4.53 0 01-.92-.483 5.05 5.05 0 01-.746-.616c-.219-.263-.35-.527-.482-.835-.131-.308-.175-.703-.175-1.143 0-1.055.35-1.89 1.096-2.505.701-.616 1.753-.923 3.025-.923.57 0 1.096.044 1.578.132.482.087.964.22 1.315.351a4.481 4.481 0 01-.395 1.45c-.306-.131-.657-.22-1.096-.307a6.62 6.62 0 00-1.402-.132c-.746 0-1.316.132-1.71.44-.395.307-.614.747-.614 1.362 0 .264.044.484.132.66.087.176.219.351.394.527.176.132.35.264.57.396.22.132.438.22.702.307l.964.396c.482.176.877.396 1.227.571.351.22.658.44.921.704.263.264.438.615.57.967.132.351.22.791.22 1.319 0 1.186-.395 2.153-1.228 2.857-.833.703-1.973 1.055-3.464 1.055-.35 0-.701 0-.964-.044-.307-.044-.57-.044-.833-.088a4.576 4.576 0 01-.745-.176c-.22-.088-.482-.132-.702-.22.044-.264.088-.527.176-.791.175-.308.263-.572.35-.835zM49.144 10.242h-4.779l-.877 2.9c-.131.045-.306.045-.438.045h-.921c-.175 0-.306-.044-.438-.044L45.768.527c.132-.043.307-.043.482-.043h1.052c.176 0 .351.043.527.043l4.077 12.616c-.132.044-.307.044-.483.044h-1.008c-.175 0-.307-.044-.438-.044l-.833-2.901zm-4.297-1.539h3.814l-1.928-6.417-1.886 6.417zM53.747.571c.131-.044.263-.044.394-.044h.921c.131 0 .307.044.438.044v11.033h4.91c.044.132.044.264.044.396v.396c0 .263 0 .527-.044.79h-6.707V.572h.044zM62.427.571h6.883c.044.22.044.484.044.792v.395c0 .132 0 .264-.044.396h-5.13v3.56h4.078c.043.132.043.264.043.396V6.9c0 .132-.043.264-.043.396H64.18v4.307h5.26c.044.22.044.484.044.792v.395c0 .132 0 .264-.044.396h-7.058V.57h.044zM75.535 2.462c.263-.044.57-.088.964-.088.351-.044.79-.044 1.36-.044.482 0 .92.044 1.314.132.439.087.79.22 1.096.395.307.176.57.44.746.747.175.308.263.704.263 1.143 0 .264-.044.528-.132.748-.087.22-.175.44-.307.615-.131.176-.307.308-.482.44-.175.131-.35.175-.526.22.175.043.395.087.658.175.219.088.482.22.657.44.22.175.395.44.526.703.132.308.22.66.22 1.055 0 .571-.088 1.01-.307 1.362-.22.352-.483.616-.833.836-.351.22-.746.351-1.228.44a8.177 8.177 0 01-1.49.131c-.395 0-.79 0-1.184-.044a7.39 7.39 0 01-1.315-.132V2.462zm2.455 3.78c.219 0 .394 0 .614-.044.175-.044.35-.088.482-.22.131-.088.263-.22.307-.396.087-.175.131-.395.131-.615 0-.264-.044-.44-.131-.615-.088-.176-.22-.264-.351-.352-.132-.088-.307-.132-.482-.176-.176-.044-.351-.044-.526-.044-.22 0-.439 0-.614.044v2.462h.57v-.044zm-.57 4.088c.131 0 .263.044.438.044h.439c.175 0 .35 0 .57-.044.175-.044.394-.088.57-.22.175-.088.306-.22.438-.396.131-.176.175-.395.175-.703 0-.264-.044-.484-.131-.66-.088-.175-.22-.307-.351-.439a2.199 2.199 0 00-.57-.22c-.22-.044-.438-.044-.745-.044h-.79v2.682h-.043zM84.741 8.44l-2.893-5.935c.35-.043.701-.087 1.096-.087.307 0 .657.044.964.087l1.841 4.176 1.798-4.176a7.15 7.15 0 01.964-.087c.307 0 .658.044 1.009.087L86.626 8.44v3.34c-.175.044-.35.044-.482.044h-.921c-.175 0-.307-.044-.482-.044V8.44zM98.375 13.363c-.964 0-1.754-.176-2.455-.484a4.373 4.373 0 01-1.71-1.363 6.053 6.053 0 01-1.008-2.065c-.22-.792-.307-1.67-.307-2.594 0-.923.088-1.802.307-2.593.22-.791.526-1.495 1.008-2.066A4.373 4.373 0 0195.92.835c.701-.308 1.49-.483 2.455-.483.964 0 1.754.175 2.455.483a4.373 4.373 0 011.71 1.363c.438.571.789 1.275 1.008 2.066.22.79.307 1.67.307 2.593s-.088 1.802-.307 2.594c-.22.79-.526 1.45-1.008 2.065-.439.572-1.009 1.011-1.71 1.363-.701.308-1.49.484-2.455.484zm0-2.154c1.797 0 2.718-1.45 2.718-4.352 0-1.45-.22-2.55-.658-3.253-.438-.703-1.096-1.099-2.016-1.099-1.841 0-2.762 1.451-2.762 4.352 0 2.945.92 4.352 2.718 4.352zM104.337.571c.439-.087.877-.087 1.447-.087h.657c.22 0 .439.043.658.087l1.797 9.495L111.045.57c.219-.044.438-.044.657-.087.22 0 .395-.044.614-.044.35 0 .745.044 1.14.087l2.235 9.715L117.49.527c.35-.087.745-.087 1.14-.087.219 0 .438 0 .701.044.22.043.439.043.658.087l-3.025 12.616c-.439.088-.877.088-1.315.088-.439 0-.921-.044-1.447-.088l-2.017-8.396-2.148 8.396c-.263.044-.526.044-.745.088-.22.044-.438.044-.701.044-.351 0-.746-.044-1.184-.088L104.337.57zM121.04.571c.35-.087.701-.087 1.052-.087.35 0 .701.043 1.096.087l4.822 8v-8c.439-.087.833-.087 1.228-.087.35 0 .701.043 1.052.087v12.616c-.395.088-.702.088-1.008.088-.307 0-.702-.044-1.053-.088l-4.91-8v8c-.394.088-.745.088-1.14.088-.394 0-.745-.044-1.14-.088V.57zM132.043.571h7.146c.088.352.088.704.088 1.055 0 .396-.044.748-.088 1.1h-4.603V5.45h3.639c.087.395.087.747.087 1.098 0 .352-.043.748-.087 1.1h-3.639v3.34h4.69c.089.352.089.703.089 1.055 0 .396-.044.747-.088 1.099h-7.234V.57zM140.724.571A88.204 88.204 0 00142.17.44c.439-.044.965-.044 1.49-.044a8.85 8.85 0 011.886.175c.614.132 1.184.308 1.666.616s.92.703 1.227 1.23c.307.528.483 1.143.483 1.935 0 .483-.044.879-.176 1.23-.131.352-.263.66-.438.923-.176.264-.395.484-.57.704-.175.22-.395.351-.614.483l-.307.176 3.069 5.319c-.22.044-.482.044-.745.088s-.526.044-.79.044c-.438 0-.876-.044-1.315-.088l-3.287-5.846.438-.22.614-.308c.219-.132.438-.308.657-.483.22-.176.395-.44.57-.704.132-.263.22-.615.22-.967 0-.747-.22-1.274-.614-1.626-.439-.352-.965-.528-1.622-.528-.263 0-.483 0-.702.044v10.638c-.219.044-.438.044-.614.044-.175 0-.394.044-.613.044h-.614c-.22 0-.438-.044-.702-.088V.57h-.043z">
						</path>
					</g>
					<path fill="#333333" d="M67.5999532 14.1978022L60.62953 9.67032967 60.62953 2.68131868 54.4920505 2.68131868 54.4920505 5.75824176 45.8119009 0.131868132 28.1008885 10.8131868 17.886369 4.43956044 0.0876782792 15.4725275 4.38391396 15.4725275 17.886369 7.12087912 31.4326631 15.4725275 35.6412205 15.4725275 30.6435586 12.3956044 45.8119009 3.16483516 64.9257657 15.4725275 69.6165537 15.4725275z">
					</path>
					<path fill="#333333" d="M0.0876782792 37.4945055L69.5288754 37.4945055 69.5288754 39.6483516 0.0876782792 39.6483516z">
					</path>
				</g>
			</g>
		</g>
	</g>
</svg>
