<svg width="600" height="109" viewBox="0 0 600 109" fill="none" xmlns="http://www.w3.org/2000/svg">
<path d="M42.2 55.4999C38.5 55.4999 36.4 53.8999 35.3 50.8999C34.2 48.0999 34.5 46.7999 31.7 46.7999C28.9 46.7999 22.3 54.4999 21.4 65.0999C21.2 66.2999 21.1 73.3999 21.1 77.2999V86.8999C21.1 91.0999 20.8 96.3999 21.6 99.4999C22.4 103.7 23.5 104.2 26.7 105.6C27.8 106.1 28.3 106.2 29 106.4V106.7H0V106.4C0.6 106.2 1.2 106.1 2.3 105.6C5.6 104.2 6.5 103.7 7.3 99.4999C8.1 96.3999 7.8 91.0999 7.8 86.8999V59.7999C7.8 57.1999 8 49.6999 7.6 47.2999C7.1 44.2999 6.4 43.3999 4.9 42.2999C3.3 41.0999 1.8 41.0999 0.799999 40.8999V40.5999H20.3C21.2 40.5999 21.2 40.8999 21.2 41.4999L21 59.2999H21.2C23.1 51.4999 27.1 46.4999 29.3 44.2999C31.5 41.9999 35.5 39.2 40.5 39.2C42.8 39.2 45.5 39.8 47.2 41.7C48.4 42.9 49.4 44.9999 49.4 48.2999C49.5 51.8999 47.2 55.4999 42.2 55.4999Z" fill="#333333"/>
<path d="M334.7 55.4999C331 55.4999 328.9 53.8999 327.8 50.8999C326.7 48.0999 327 46.7999 324.2 46.7999C321.4 46.7999 314.8 54.4999 313.9 65.0999C313.7 66.2999 313.6 73.3999 313.6 77.2999V86.8999C313.6 91.0999 313.3 96.3999 314.1 99.4999C314.9 103.7 316 104.2 319.2 105.6C320.3 106.1 320.8 106.2 321.5 106.4V106.7H292.3V106.4C292.9 106.2 293.5 106.1 294.6 105.6C297.9 104.2 298.8 103.7 299.6 99.4999C300.4 96.3999 300.1 91.0999 300.1 86.8999V59.7999C300.1 57.1999 300.3 49.6999 299.9 47.2999C299.4 44.2999 298.7 43.3999 297.3 42.2999C295.7 41.0999 294.2 41.0999 293.2 40.8999V40.5999H312.9C313.8 40.5999 313.8 40.8999 313.8 41.4999L313.6 59.2999H313.8C315.7 51.4999 319.7 46.4999 321.9 44.2999C324.1 41.9999 328.1 39.2 333.1 39.2C335.4 39.2 338.1 39.8 339.8 41.7C341 42.9 342 44.9999 342 48.2999C342 51.8999 339.7 55.4999 334.7 55.4999Z" fill="#333333"/>
<path d="M84.4 45C81.9 42.9 79.4 42.2 75.7 42.2C72.4 42.2 69.9 43 67.6 45.2C64.2 48.3 62.3 55.3 61.8 65.5H84.2C88.7 65.5 89.2 65.4 89.2 59.7C89.3 51.8 86.9 47.1 84.4 45ZM103 68.6H61.8C61.8 86.8 64.1 92.4 68.7 97.5C72.3 101.6 75.6 102.6 80.1 102.6C92.6 102.6 99.4 96.3 101.8 85.3L102.4 85.5C99.6 99.1 91 107.9 77.6 107.9C69.8 107.9 61.4 106 55.6 100C49.4 93.3 47 85.2 47 74C47 53.1 59 39.1 75.5 39.1C94.7 39.1 103.1 52 103.1 64.2C103.2 65.3 103.2 66.9 103 68.6ZM129.4 75.9C125 78.2 123.2 79.8 121.8 82C120.2 84.5 119.3 87.3 119.3 91.7C119.3 100.6 122.7 102.5 129 102.5C130.2 102.5 131.6 102.3 132.9 101.7C136.2 100 140.9 95 140.9 90L141.1 68.2C138.9 71.5 133.6 73.7 129.4 75.9ZM152.6 108C148.9 108 145.9 107.8 144 106.8C142 105.7 140.6 102.6 140.9 96.8H140.7C139.1 102.1 132.1 108 122.1 108C112.9 108 104.8 102.7 104.8 91.5C104.8 87.3 106 84 108.7 81.5C113.5 77 120.1 76.7 126.8 74C135.7 70.6 141.4 66.4 141.4 61.7C141.4 59.4 141.6 54 141.6 51.7C141.6 43.3 137.8 41.9 131.1 41.9C127.8 41.9 125.8 42.5 124.2 44.1C122.6 45.7 122 47.1 122 51.7C122 56.5 119.4 58.6 115 58.6C111.6 58.6 108.8 56.7 108.8 52.7C108.8 50.1 109.7 48.2 111.3 46.3C114.7 41.9 124.2 39.3 130.9 39.3C142.4 39.3 155.3 43.5 155.3 54.6C155.3 59.7 155 84.2 155 93.5C155 95.6 155 97.6 155.1 99.7C155.3 102.2 156 105.1 158.9 105.8C160.2 106.1 161.9 105.8 163 105V105.2C161.4 106.6 157.6 108 152.6 108ZM163.2 106.6V106.3C164 106.1 165.1 105.8 165.8 105.5C168.5 104.4 169.7 103.5 170.5 99.4C171.1 96.4 171.1 91.3 171.1 86.9V19.1C171.1 16.5 171.3 9.00001 170.8 6.60001C170.3 3.60001 169.6 2.50001 168.2 1.60001C166.5 0.300006 165.2 0.300012 164.1 0.200012V0H183.7C184.6 0 184.6 6.07967e-06 184.6 1.10001C184.6 3.40001 184.4 6.69999 184.4 10.9V87C184.4 91.4 184.2 96.4 184.9 99.5C185.8 103.7 186.9 104.5 190.2 105.7C191.1 106 191.4 106.2 192.2 106.3V106.6H163.2Z" fill="#333333"/>
<path d="M235 98.1C232.7 103.2 225.8 108.1 219.1 108.1C213 108.1 209 107.2 205.5 104C202.7 101.5 201.4 98.4 201.4 92.6C201.4 89.5 201.9 49.1 202 41.5C199.7 41.3 195.1 41.3 192.8 41V40.7C202.5 38.5 208.5 33.5 215.1 12.5H215.6V38.3H231V41.3H215.6L215 93.7C215 99.6 216.7 104.7 222.9 104.7C228.4 104.7 232.6 101.5 234.4 97.7L235 98.1Z" fill="#333333"/>
<path d="M271.7 46.7C268.6 43 265 42.2 261.4 42.2C258 42.2 254.2 43.5 251.3 46.6C246.6 51.4 244 61.6 244 73.5C244 85.7 246.8 95.2 251.2 100.3C254.3 104 258.1 105 261.5 105C265.1 105 268.5 104.2 271.8 100.5C276 95.4 279 85.7 279 73.5C278.8 61.4 276 51.9 271.7 46.7ZM261.4 108C246 108 229.4 94.8 229.4 73.4C229.4 52 245.9 39.1 261.4 39.1C276.8 39.1 293.5 52.2 293.5 73.4C293.5 94.6 276.8 108 261.4 108ZM452.7 46.7C449.6 43 446 42.2 442.4 42.2C439 42.2 435.2 43.5 432.3 46.6C427.6 51.4 425 61.6 425 73.5C425 85.7 427.8 95.2 432.2 100.3C435.3 104 439.1 105 442.5 105C446.1 105 449.5 104.2 452.8 100.5C457 95.4 460 85.7 460 73.5C459.8 61.4 457 51.9 452.7 46.7ZM442.4 108C427 108 410.4 94.8 410.4 73.4C410.4 52 426.9 39.1 442.4 39.1C457.8 39.1 474.5 52.2 474.5 73.4C474.5 94.6 457.8 108 442.4 108ZM342.6 109C338.1 109 334.3 105.4 334.3 100.4C334.3 95.4 338 91.8 342.6 91.8C347.1 91.8 350.9 94.9 350.9 100.4C350.9 105.9 347.1 109 342.6 109ZM385.9 108C377.3 108 369.7 104.7 364.7 99.7C358.3 93.2 355.8 84 355.8 72.7C355.8 51.5 372 39 386 39C395.7 39 402.8 42.6 405.6 46C407.8 48.7 408.9 51 408.9 53.2C408.9 58 405.3 59.9 402.5 59.9C397.2 59.9 395.3 56.6 394.7 51.6C393.5 42.7 392 41.6 385.3 41.6C382.7 41.6 378.4 42.7 375.9 45.5C372.3 49.6 370.4 57.9 370.4 70C370.4 85.3 372.3 91.3 376.3 97.2C379.3 101.6 383 102.7 386.6 102.7C400.6 102.7 406.9 94.5 409 85.3L409.6 85.5C407.1 97.9 399 108 385.9 108Z" fill="#333333"/>
<path d="M554.3 106.7V106.4C555.1 106.2 555.5 106.1 556.6 105.6C559.7 104.4 560.8 103.6 561.6 99.4C562.4 96.3 562.2 91.3 562.2 86.9V59.8C562.2 52.6 561.6 49.3 559.9 46.9C557.9 44.2 555.4 42.8 551.3 42.8C544.3 42.8 536.5 54.8 535.4 66.8C535.2 69.1 535.1 71.1 535.1 74V86.9C535.1 91.3 534.8 96.3 535.6 99.4C536.4 103.6 537.6 104.4 540.7 105.6C541.8 106.1 542.3 106.2 543 106.4V106.7H513.9V106.4C514.7 106.2 515.1 106.1 516.2 105.6C519.3 104.4 520.4 103.6 521.2 99.4C522 96.3 521.8 91.3 521.8 86.9V59.8C521.8 52.6 521 49.3 519.3 46.9C517.3 44.2 514.8 42.8 510.7 42.8C502.9 42.8 495.9 55.1 494.8 67.1C494.5 70.8 494.5 69.4 494.5 74.1V86.9C494.5 91.3 494.2 96.4 495 99.5C495.8 103.7 497 104.2 500.3 105.6L502.5 106.4V106.7H473.4V106.4C474 106.2 474.6 106.1 475.7 105.6C479 104.4 479.8 103.7 480.7 99.5C481.5 96.4 481.3 91.2 481.3 86.9V59.9C481.3 57.1 481.3 49.6 481 47.3C480.5 44.3 479.9 43.6 478.3 42.3C476.7 41.1 475.3 41.1 474.2 40.9V40.6H493.8C494.7 40.6 494.7 40.8 494.7 41.5L494.4 56.8H494.6C496.5 49.9 499.9 46 503.3 43.6C505.8 41.7 510.8 39.2 516.2 39.2C523.1 39.2 527.9 41.2 530.7 44.7C532.3 46.6 534.8 50.9 534.8 57.3H535C537 50 540.8 45.9 544 43.6C547.4 41.1 552.7 39.2 556.8 39.2C565.4 39.2 569.3 41.9 571.6 44.8C573.6 47.1 575.3 51.3 575.3 59.3V86.9C575.3 91.3 575.1 96.3 575.9 99.4C576.7 103.6 577.8 104.2 581 105.6L583.2 106.4V106.7H554.3ZM591.5 41.2C592.1 41.2 592.6 41.1 592.9 40.8C593.2 40.5 593.4 40.2 593.4 39.7V39.6C593.4 39.1 593.2 38.7 592.9 38.5C592.6 38.2 592.1 38.1 591.5 38.1H589.1V41.1H591.5V41.2ZM587.3 36.5H591.6C592.8 36.5 593.8 36.8 594.5 37.5C595 38 595.3 38.7 595.3 39.5C595.3 40.3 595.1 40.9 594.7 41.4C594.3 41.9 593.8 42.2 593.1 42.4L595.7 46H593.5L591.2 42.7H589.2V46H587.4L587.3 36.5ZM591 49.3C592.1 49.3 593.1 49.1 594.1 48.7C595 48.3 595.9 47.7 596.6 47C597.3 46.3 597.8 45.5 598.2 44.5C598.6 43.6 598.8 42.5 598.8 41.5C598.8 40.4 598.6 39.4 598.2 38.5C597.8 37.6 597.3 36.7 596.6 36C595.9 35.3 595.1 34.7 594.1 34.3C593.2 33.9 592.1 33.7 591 33.7C589.9 33.7 588.9 33.9 587.9 34.3C587 34.7 586.1 35.3 585.4 36C584.7 36.7 584.2 37.5 583.8 38.5C583.4 39.4 583.2 40.5 583.2 41.5C583.2 42.6 583.4 43.6 583.8 44.5C584.2 45.4 584.7 46.3 585.4 47C586.1 47.7 586.9 48.3 587.9 48.7C588.9 49.1 589.9 49.3 591 49.3ZM591 50.5C589.7 50.5 588.6 50.3 587.5 49.8C586.4 49.3 585.5 48.7 584.7 47.9C583.9 47.1 583.3 46.2 582.8 45.1C582.3 44 582.1 42.9 582.1 41.7C582.1 40.5 582.3 39.3 582.8 38.3C583.3 37.2 583.9 36.3 584.7 35.5C585.5 34.7 586.5 34 587.5 33.6C588.6 33.1 589.8 32.9 591 32.9C592.3 32.9 593.4 33.1 594.5 33.6C595.6 34.1 596.5 34.7 597.3 35.5C598.1 36.3 598.7 37.2 599.2 38.3C599.7 39.4 599.9 40.5 599.9 41.7C599.9 42.9 599.7 44.1 599.2 45.1C598.7 46.2 598.1 47.1 597.3 47.9C596.5 48.7 595.5 49.4 594.5 49.8C593.4 50.2 592.3 50.5 591 50.5Z" fill="#333333"/>
</svg>
