<svg width="768" height="62" viewBox="0 0 768 62" fill="none" xmlns="http://www.w3.org/2000/svg">
	<mask id="path-1-outside-1_1_5" maskUnits="userSpaceOnUse" x="0.399994" y="0.360001" width="767" height="62" fill="black">
		<rect fill="white" x="0.399994" y="0.360001" width="767" height="62" />
		<path d="M24.48 59.64C20.1067 59.64 16.24 58.7867 12.88 57.08C9.57333 55.3733 6.98666 52.9733 5.11999 49.88C3.30666 46.7333 2.39999 43.1067 2.39999 39V22.84C2.39999 18.7867 3.30666 15.2133 5.11999 12.12C6.98666 9.02666 9.57333 6.62666 12.88 4.91999C16.24 3.21333 20.1067 2.36 24.48 2.36C28.8533 2.36 32.6933 3.16 36 4.76C39.36 6.36 41.9467 8.62667 43.76 11.56C45.6267 14.44 46.56 17.8 46.56 21.64C46.56 22.12 46.16 22.4133 45.36 22.52L32.72 23.32H32.48C31.84 23.32 31.52 23.0267 31.52 22.44C31.52 20.2533 30.88 18.52 29.6 17.24C28.32 15.9067 26.6133 15.24 24.48 15.24C22.3467 15.24 20.64 15.9067 19.36 17.24C18.08 18.52 17.44 20.2533 17.44 22.44V39.64C17.44 41.7733 18.08 43.5067 19.36 44.84C20.64 46.12 22.3467 46.76 24.48 46.76C26.6133 46.76 28.32 46.12 29.6 44.84C30.88 43.5067 31.52 41.7733 31.52 39.64C31.52 39.32 31.6267 39.08 31.84 38.92C32.0533 38.76 32.3467 38.7067 32.72 38.76L45.36 39.4C46.16 39.4533 46.56 39.72 46.56 40.2C46.56 44.04 45.6267 47.4267 43.76 50.36C41.9467 53.2933 39.36 55.5867 36 57.24C32.6933 58.84 28.8533 59.64 24.48 59.64Z" />
		<path d="M73.55 59.96C69.1233 59.96 65.2033 59.08 61.79 57.32C58.43 55.5067 55.8167 53 53.95 49.8C52.0833 46.5467 51.15 42.7867 51.15 38.52V23.48C51.15 19.32 52.0833 15.64 53.95 12.44C55.8167 9.24 58.43 6.76 61.79 5C65.2033 3.24 69.1233 2.36 73.55 2.36C78.03 2.36 81.95 3.24 85.31 5C88.7233 6.76 91.3633 9.24 93.23 12.44C95.0967 15.64 96.03 19.32 96.03 23.48V38.52C96.03 42.7867 95.0967 46.5467 93.23 49.8C91.3633 53 88.7233 55.5067 85.31 57.32C81.95 59.08 78.03 59.96 73.55 59.96ZM73.55 47.08C75.79 47.08 77.5767 46.36 78.91 44.92C80.2967 43.4267 80.99 41.4533 80.99 39V23.32C80.99 20.8667 80.2967 18.92 78.91 17.48C77.5767 15.9867 75.79 15.24 73.55 15.24C71.3633 15.24 69.5767 15.9867 68.19 17.48C66.8567 18.92 66.19 20.8667 66.19 23.32V39C66.19 41.4533 66.8567 43.4267 68.19 44.92C69.5767 46.36 71.3633 47.08 73.55 47.08Z" />
		<path d="M102.757 59C102.384 59 102.091 58.8933 101.877 58.68C101.664 58.4667 101.557 58.1733 101.557 57.8V4.2C101.557 3.82666 101.664 3.53333 101.877 3.32C102.091 3.10666 102.384 3 102.757 3H115.397C115.771 3 116.064 3.10666 116.277 3.32C116.491 3.53333 116.597 3.82666 116.597 4.2V45.72C116.597 45.9867 116.731 46.12 116.997 46.12H141.717C142.091 46.12 142.384 46.2267 142.598 46.44C142.811 46.6533 142.918 46.9467 142.918 47.32V57.8C142.918 58.1733 142.811 58.4667 142.598 58.68C142.384 58.8933 142.091 59 141.717 59H102.757Z" />
		<path d="M168.316 59.96C163.889 59.96 159.969 59.08 156.556 57.32C153.196 55.5067 150.582 53 148.716 49.8C146.849 46.5467 145.916 42.7867 145.916 38.52V23.48C145.916 19.32 146.849 15.64 148.716 12.44C150.582 9.24 153.196 6.76 156.556 5C159.969 3.24 163.889 2.36 168.316 2.36C172.796 2.36 176.716 3.24 180.076 5C183.489 6.76 186.129 9.24 187.996 12.44C189.862 15.64 190.796 19.32 190.796 23.48V38.52C190.796 42.7867 189.862 46.5467 187.996 49.8C186.129 53 183.489 55.5067 180.076 57.32C176.716 59.08 172.796 59.96 168.316 59.96ZM168.316 47.08C170.556 47.08 172.342 46.36 173.676 44.92C175.062 43.4267 175.756 41.4533 175.756 39V23.32C175.756 20.8667 175.062 18.92 173.676 17.48C172.342 15.9867 170.556 15.24 168.316 15.24C166.129 15.24 164.342 15.9867 162.956 17.48C161.622 18.92 160.956 20.8667 160.956 23.32V39C160.956 41.4533 161.622 43.4267 162.956 44.92C164.342 46.36 166.129 47.08 168.316 47.08Z" />
		<path d="M225.763 59C225.07 59 224.616 58.7067 224.403 58.12L215.603 37.8C215.496 37.5867 215.336 37.48 215.123 37.48H211.763C211.496 37.48 211.363 37.6133 211.363 37.88V57.8C211.363 58.1733 211.256 58.4667 211.043 58.68C210.83 58.8933 210.536 59 210.163 59H197.523C197.15 59 196.856 58.8933 196.643 58.68C196.43 58.4667 196.323 58.1733 196.323 57.8V4.2C196.323 3.82666 196.43 3.53333 196.643 3.32C196.856 3.10666 197.15 3 197.523 3H221.763C225.39 3 228.563 3.74666 231.283 5.24C234.056 6.73333 236.19 8.84 237.683 11.56C239.23 14.2267 240.003 17.32 240.003 20.84C240.003 24.36 239.123 27.4533 237.363 30.12C235.656 32.7333 233.283 34.6533 230.243 35.88C229.976 35.9867 229.896 36.1733 230.003 36.44L240.163 57.56C240.27 57.88 240.323 58.0667 240.323 58.12C240.323 58.3867 240.216 58.6 240.003 58.76C239.79 58.92 239.523 59 239.203 59H225.763ZM211.763 15.88C211.496 15.88 211.363 16.0133 211.363 16.28V25.64C211.363 25.9067 211.496 26.04 211.763 26.04H219.283C220.99 26.04 222.376 25.5867 223.443 24.68C224.51 23.72 225.043 22.4933 225.043 21C225.043 19.4533 224.51 18.2267 223.443 17.32C222.376 16.36 220.99 15.88 219.283 15.88H211.763Z" />
		<path d="M282.982 59C282.235 59 281.782 58.6533 281.622 57.96L279.862 51.72C279.755 51.5067 279.622 51.4 279.462 51.4H262.502C262.342 51.4 262.209 51.5067 262.102 51.72L260.342 57.96C260.182 58.6533 259.729 59 258.982 59H245.302C244.342 59 243.995 58.5467 244.262 57.64L261.142 3.96C261.355 3.32 261.809 3 262.502 3H279.462C280.155 3 280.609 3.32 280.822 3.96L297.702 57.64C297.755 57.7467 297.782 57.9067 297.782 58.12C297.782 58.7067 297.409 59 296.662 59H282.982ZM265.622 39.4C265.569 39.72 265.675 39.88 265.942 39.88H275.942C276.262 39.88 276.369 39.72 276.262 39.4L271.142 21.48C271.089 21.32 271.009 21.24 270.902 21.24C270.795 21.24 270.715 21.32 270.662 21.48L265.622 39.4Z" />
		<path d="M303.851 59C303.478 59 303.185 58.8933 302.971 58.68C302.758 58.4667 302.651 58.1733 302.651 57.8V4.2C302.651 3.82666 302.758 3.53333 302.971 3.32C303.185 3.10666 303.478 3 303.851 3H324.411C328.731 3 332.545 3.74666 335.851 5.24C339.211 6.73333 341.798 8.84 343.611 11.56C345.425 14.28 346.331 17.4267 346.331 21V41C346.331 44.5733 345.425 47.72 343.611 50.44C341.798 53.16 339.211 55.2667 335.851 56.76C332.545 58.2533 328.731 59 324.411 59H303.851ZM317.691 45.72C317.691 45.9867 317.825 46.12 318.091 46.12H324.971C326.785 46.12 328.278 45.4267 329.451 44.04C330.625 42.6 331.238 40.7333 331.291 38.44V23.56C331.291 21.2667 330.705 19.4267 329.531 18.04C328.358 16.6 326.811 15.88 324.891 15.88H318.091C317.825 15.88 317.691 16.0133 317.691 16.28V45.72Z" />
		<path d="M373.784 59.96C369.358 59.96 365.438 59.08 362.024 57.32C358.664 55.5067 356.051 53 354.184 49.8C352.318 46.5467 351.384 42.7867 351.384 38.52V23.48C351.384 19.32 352.318 15.64 354.184 12.44C356.051 9.24 358.664 6.76 362.024 5C365.438 3.24 369.358 2.36 373.784 2.36C378.264 2.36 382.184 3.24 385.544 5C388.958 6.76 391.598 9.24 393.464 12.44C395.331 15.64 396.264 19.32 396.264 23.48V38.52C396.264 42.7867 395.331 46.5467 393.464 49.8C391.598 53 388.958 55.5067 385.544 57.32C382.184 59.08 378.264 59.96 373.784 59.96ZM373.784 47.08C376.024 47.08 377.811 46.36 379.144 44.92C380.531 43.4267 381.224 41.4533 381.224 39V23.32C381.224 20.8667 380.531 18.92 379.144 17.48C377.811 15.9867 376.024 15.24 373.784 15.24C371.598 15.24 369.811 15.9867 368.424 17.48C367.091 18.92 366.424 20.8667 366.424 23.32V39C366.424 41.4533 367.091 43.4267 368.424 44.92C369.811 46.36 371.598 47.08 373.784 47.08Z" />
		<path d="M455.408 32.04C456.474 34.4933 457.008 37.16 457.008 40.04C457.008 42.76 456.448 45.48 455.328 48.2C453.888 51.72 451.514 54.52 448.207 56.6C444.901 58.6267 441.061 59.64 436.688 59.64C432.421 59.64 428.607 58.6 425.247 56.52C421.941 54.44 419.514 51.6133 417.967 48.04C417.061 46.0667 416.527 43.72 416.367 41C416.367 40.2 416.768 39.8 417.568 39.8H430.367C431.114 39.8 431.541 40.1733 431.647 40.92C431.861 42.4667 432.207 43.6667 432.688 44.52C433.541 46.0133 434.848 46.76 436.608 46.76C438.368 46.76 439.701 46.0133 440.608 44.52C441.408 43.1333 441.807 41.48 441.807 39.56C441.807 37.5867 441.434 35.9067 440.688 34.52C439.727 32.92 438.341 32.12 436.527 32.12C435.887 32.12 435.194 32.3333 434.448 32.76C433.754 33.1867 432.767 33.88 431.487 34.84C431.274 35.0533 431.008 35.16 430.688 35.16C430.314 35.16 430.021 34.9733 429.807 34.6L423.487 25.64C423.327 25.3733 423.247 25.1067 423.247 24.84C423.247 24.4667 423.434 24.1733 423.807 23.96L435.487 16.36C435.647 16.3067 435.701 16.2267 435.647 16.12C435.594 15.96 435.488 15.88 435.328 15.88H419.168C418.794 15.88 418.501 15.7733 418.288 15.56C418.074 15.3467 417.967 15.0533 417.967 14.68V4.2C417.967 3.82666 418.074 3.53333 418.288 3.32C418.501 3.10666 418.794 3 419.168 3H454.848C455.221 3 455.514 3.10666 455.728 3.32C455.941 3.53333 456.048 3.82666 456.048 4.2V15.96C456.048 16.6533 455.808 17.16 455.328 17.48L446.688 23.48C446.421 23.6933 446.474 23.88 446.848 24.04C450.794 25.2667 453.648 27.9333 455.408 32.04Z" />
		<path d="M463.461 59C463.087 59 462.794 58.8933 462.581 58.68C462.367 58.4667 462.261 58.1733 462.261 57.8V4.2C462.261 3.82666 462.367 3.53333 462.581 3.32C462.794 3.10666 463.087 3 463.461 3H484.021C488.341 3 492.154 3.74666 495.461 5.24C498.821 6.73333 501.407 8.84 503.221 11.56C505.034 14.28 505.941 17.4267 505.941 21V41C505.941 44.5733 505.034 47.72 503.221 50.44C501.407 53.16 498.821 55.2667 495.461 56.76C492.154 58.2533 488.341 59 484.021 59H463.461ZM477.301 45.72C477.301 45.9867 477.434 46.12 477.701 46.12H484.581C486.394 46.12 487.887 45.4267 489.061 44.04C490.234 42.6 490.847 40.7333 490.901 38.44V23.56C490.901 21.2667 490.314 19.4267 489.141 18.04C487.967 16.6 486.421 15.88 484.501 15.88H477.701C477.434 15.88 477.301 16.0133 477.301 16.28V45.72Z" />
		<path d="M569.569 3C569.943 3 570.236 3.10666 570.449 3.32C570.663 3.53333 570.769 3.82666 570.769 4.2V14.76C570.769 15.1333 570.663 15.4267 570.449 15.64C570.236 15.8533 569.943 15.96 569.569 15.96H556.129C555.863 15.96 555.729 16.0933 555.729 16.36V57.8C555.729 58.1733 555.623 58.4667 555.409 58.68C555.196 58.8933 554.903 59 554.529 59H541.889C541.516 59 541.223 58.8933 541.009 58.68C540.796 58.4667 540.689 58.1733 540.689 57.8V16.36C540.689 16.0933 540.556 15.96 540.289 15.96H527.249C526.876 15.96 526.583 15.8533 526.369 15.64C526.156 15.4267 526.049 15.1333 526.049 14.76V4.2C526.049 3.82666 526.156 3.53333 526.369 3.32C526.583 3.10666 526.876 3 527.249 3H569.569Z" />
		<path d="M595.894 59.96C591.467 59.96 587.547 59.08 584.134 57.32C580.774 55.5067 578.16 53 576.294 49.8C574.427 46.5467 573.494 42.7867 573.494 38.52V23.48C573.494 19.32 574.427 15.64 576.294 12.44C578.16 9.24 580.774 6.76 584.134 5C587.547 3.24 591.467 2.36 595.894 2.36C600.374 2.36 604.294 3.24 607.654 5C611.067 6.76 613.707 9.24 615.574 12.44C617.44 15.64 618.374 19.32 618.374 23.48V38.52C618.374 42.7867 617.44 46.5467 615.574 49.8C613.707 53 611.067 55.5067 607.654 57.32C604.294 59.08 600.374 59.96 595.894 59.96ZM595.894 47.08C598.134 47.08 599.92 46.36 601.254 44.92C602.64 43.4267 603.334 41.4533 603.334 39V23.32C603.334 20.8667 602.64 18.92 601.254 17.48C599.92 15.9867 598.134 15.24 595.894 15.24C593.707 15.24 591.92 15.9867 590.534 17.48C589.2 18.92 588.534 20.8667 588.534 23.32V39C588.534 41.4533 589.2 43.4267 590.534 44.92C591.92 46.36 593.707 47.08 595.894 47.08Z" />
		<path d="M645.501 59.64C641.181 59.64 637.341 58.8133 633.981 57.16C630.675 55.5067 628.115 53.16 626.301 50.12C624.488 47.08 623.581 43.56 623.581 39.56V4.2C623.581 3.82666 623.688 3.53333 623.901 3.32C624.115 3.10666 624.408 3 624.781 3H637.421C637.795 3 638.088 3.10666 638.301 3.32C638.515 3.53333 638.621 3.82666 638.621 4.2V39.56C638.621 41.7467 639.235 43.5067 640.461 44.84C641.741 46.12 643.421 46.76 645.501 46.76C647.528 46.76 649.155 46.0933 650.381 44.76C651.661 43.4267 652.301 41.6933 652.301 39.56V4.2C652.301 3.82666 652.408 3.53333 652.621 3.32C652.835 3.10666 653.128 3 653.501 3H666.141C666.515 3 666.808 3.10666 667.021 3.32C667.235 3.53333 667.341 3.82666 667.341 4.2V39.56C667.341 43.56 666.435 47.08 664.621 50.12C662.808 53.16 660.248 55.5067 656.941 57.16C653.635 58.8133 649.821 59.64 645.501 59.64Z" />
		<path d="M702.716 59C702.023 59 701.57 58.7067 701.356 58.12L692.556 37.8C692.45 37.5867 692.29 37.48 692.076 37.48H688.716C688.45 37.48 688.316 37.6133 688.316 37.88V57.8C688.316 58.1733 688.21 58.4667 687.996 58.68C687.783 58.8933 687.49 59 687.116 59H674.476C674.103 59 673.81 58.8933 673.596 58.68C673.383 58.4667 673.276 58.1733 673.276 57.8V4.2C673.276 3.82666 673.383 3.53333 673.596 3.32C673.81 3.10666 674.103 3 674.476 3H698.716C702.343 3 705.516 3.74666 708.236 5.24C711.01 6.73333 713.143 8.84 714.636 11.56C716.183 14.2267 716.956 17.32 716.956 20.84C716.956 24.36 716.076 27.4533 714.316 30.12C712.61 32.7333 710.236 34.6533 707.196 35.88C706.93 35.9867 706.85 36.1733 706.956 36.44L717.116 57.56C717.223 57.88 717.276 58.0667 717.276 58.12C717.276 58.3867 717.17 58.6 716.956 58.76C716.743 58.92 716.476 59 716.156 59H702.716ZM688.716 15.88C688.45 15.88 688.316 16.0133 688.316 16.28V25.64C688.316 25.9067 688.45 26.04 688.716 26.04H696.236C697.943 26.04 699.33 25.5867 700.396 24.68C701.463 23.72 701.996 22.4933 701.996 21C701.996 19.4533 701.463 18.2267 700.396 17.32C699.33 16.36 697.943 15.88 696.236 15.88H688.716Z" />
		<path d="M743.695 59.64C739.215 59.64 735.295 58.92 731.935 57.48C728.575 55.9867 725.962 53.88 724.095 51.16C722.282 48.44 721.375 45.2933 721.375 41.72V40.6C721.375 40.2267 721.482 39.9333 721.695 39.72C721.908 39.5067 722.202 39.4 722.575 39.4H734.975C735.348 39.4 735.642 39.5067 735.855 39.72C736.068 39.9333 736.175 40.2267 736.175 40.6V41.08C736.175 42.5733 736.948 43.9067 738.495 45.08C740.095 46.2 742.202 46.76 744.815 46.76C746.788 46.76 748.202 46.36 749.055 45.56C749.908 44.7067 750.335 43.7733 750.335 42.76C750.335 41.5867 749.802 40.7067 748.735 40.12C747.668 39.5333 745.722 38.8133 742.895 37.96L740.575 37.32C735.295 35.72 730.868 33.5867 727.295 30.92C723.722 28.2533 721.935 24.3867 721.935 19.32C721.935 15.96 722.842 13 724.655 10.44C726.468 7.82666 728.948 5.82666 732.095 4.44C735.295 3.05333 738.868 2.36 742.815 2.36C746.975 2.36 750.735 3.13333 754.095 4.68C757.508 6.22666 760.175 8.41333 762.095 11.24C764.068 14.0667 765.055 17.2933 765.055 20.92V21.64C765.055 22.0133 764.948 22.3067 764.735 22.52C764.522 22.7333 764.228 22.84 763.855 22.84H751.455C751.082 22.84 750.788 22.7333 750.575 22.52C750.362 22.3067 750.255 22.0133 750.255 21.64V21.56C750.255 19.96 749.535 18.52 748.095 17.24C746.655 15.9067 744.708 15.24 742.255 15.24C740.548 15.24 739.188 15.5867 738.175 16.28C737.215 16.9733 736.735 17.9333 736.735 19.16C736.735 20.12 737.082 20.9467 737.775 21.64C738.522 22.28 739.642 22.92 741.135 23.56C742.628 24.1467 744.922 24.92 748.015 25.88C748.442 26.04 750.308 26.6267 753.615 27.64C756.975 28.6 759.775 30.3867 762.015 33C764.255 35.56 765.375 38.68 765.375 42.36C765.375 45.9333 764.468 49.0267 762.655 51.64C760.842 54.2 758.308 56.1733 755.055 57.56C751.802 58.9467 748.015 59.64 743.695 59.64Z" />
	</mask>
	<path d="M24.48 59.64C20.1067 59.64 16.24 58.7867 12.88 57.08C9.57333 55.3733 6.98666 52.9733 5.11999 49.88C3.30666 46.7333 2.39999 43.1067 2.39999 39V22.84C2.39999 18.7867 3.30666 15.2133 5.11999 12.12C6.98666 9.02666 9.57333 6.62666 12.88 4.91999C16.24 3.21333 20.1067 2.36 24.48 2.36C28.8533 2.36 32.6933 3.16 36 4.76C39.36 6.36 41.9467 8.62667 43.76 11.56C45.6267 14.44 46.56 17.8 46.56 21.64C46.56 22.12 46.16 22.4133 45.36 22.52L32.72 23.32H32.48C31.84 23.32 31.52 23.0267 31.52 22.44C31.52 20.2533 30.88 18.52 29.6 17.24C28.32 15.9067 26.6133 15.24 24.48 15.24C22.3467 15.24 20.64 15.9067 19.36 17.24C18.08 18.52 17.44 20.2533 17.44 22.44V39.64C17.44 41.7733 18.08 43.5067 19.36 44.84C20.64 46.12 22.3467 46.76 24.48 46.76C26.6133 46.76 28.32 46.12 29.6 44.84C30.88 43.5067 31.52 41.7733 31.52 39.64C31.52 39.32 31.6267 39.08 31.84 38.92C32.0533 38.76 32.3467 38.7067 32.72 38.76L45.36 39.4C46.16 39.4533 46.56 39.72 46.56 40.2C46.56 44.04 45.6267 47.4267 43.76 50.36C41.9467 53.2933 39.36 55.5867 36 57.24C32.6933 58.84 28.8533 59.64 24.48 59.64Z" fill="white" />
	<path d="M73.55 59.96C69.1233 59.96 65.2033 59.08 61.79 57.32C58.43 55.5067 55.8167 53 53.95 49.8C52.0833 46.5467 51.15 42.7867 51.15 38.52V23.48C51.15 19.32 52.0833 15.64 53.95 12.44C55.8167 9.24 58.43 6.76 61.79 5C65.2033 3.24 69.1233 2.36 73.55 2.36C78.03 2.36 81.95 3.24 85.31 5C88.7233 6.76 91.3633 9.24 93.23 12.44C95.0967 15.64 96.03 19.32 96.03 23.48V38.52C96.03 42.7867 95.0967 46.5467 93.23 49.8C91.3633 53 88.7233 55.5067 85.31 57.32C81.95 59.08 78.03 59.96 73.55 59.96ZM73.55 47.08C75.79 47.08 77.5767 46.36 78.91 44.92C80.2967 43.4267 80.99 41.4533 80.99 39V23.32C80.99 20.8667 80.2967 18.92 78.91 17.48C77.5767 15.9867 75.79 15.24 73.55 15.24C71.3633 15.24 69.5767 15.9867 68.19 17.48C66.8567 18.92 66.19 20.8667 66.19 23.32V39C66.19 41.4533 66.8567 43.4267 68.19 44.92C69.5767 46.36 71.3633 47.08 73.55 47.08Z" fill="white" />
	<path d="M102.757 59C102.384 59 102.091 58.8933 101.877 58.68C101.664 58.4667 101.557 58.1733 101.557 57.8V4.2C101.557 3.82666 101.664 3.53333 101.877 3.32C102.091 3.10666 102.384 3 102.757 3H115.397C115.771 3 116.064 3.10666 116.277 3.32C116.491 3.53333 116.597 3.82666 116.597 4.2V45.72C116.597 45.9867 116.731 46.12 116.997 46.12H141.717C142.091 46.12 142.384 46.2267 142.598 46.44C142.811 46.6533 142.918 46.9467 142.918 47.32V57.8C142.918 58.1733 142.811 58.4667 142.598 58.68C142.384 58.8933 142.091 59 141.717 59H102.757Z" fill="white" />
	<path d="M168.316 59.96C163.889 59.96 159.969 59.08 156.556 57.32C153.196 55.5067 150.582 53 148.716 49.8C146.849 46.5467 145.916 42.7867 145.916 38.52V23.48C145.916 19.32 146.849 15.64 148.716 12.44C150.582 9.24 153.196 6.76 156.556 5C159.969 3.24 163.889 2.36 168.316 2.36C172.796 2.36 176.716 3.24 180.076 5C183.489 6.76 186.129 9.24 187.996 12.44C189.862 15.64 190.796 19.32 190.796 23.48V38.52C190.796 42.7867 189.862 46.5467 187.996 49.8C186.129 53 183.489 55.5067 180.076 57.32C176.716 59.08 172.796 59.96 168.316 59.96ZM168.316 47.08C170.556 47.08 172.342 46.36 173.676 44.92C175.062 43.4267 175.756 41.4533 175.756 39V23.32C175.756 20.8667 175.062 18.92 173.676 17.48C172.342 15.9867 170.556 15.24 168.316 15.24C166.129 15.24 164.342 15.9867 162.956 17.48C161.622 18.92 160.956 20.8667 160.956 23.32V39C160.956 41.4533 161.622 43.4267 162.956 44.92C164.342 46.36 166.129 47.08 168.316 47.08Z" fill="white" />
	<path d="M225.763 59C225.07 59 224.616 58.7067 224.403 58.12L215.603 37.8C215.496 37.5867 215.336 37.48 215.123 37.48H211.763C211.496 37.48 211.363 37.6133 211.363 37.88V57.8C211.363 58.1733 211.256 58.4667 211.043 58.68C210.83 58.8933 210.536 59 210.163 59H197.523C197.15 59 196.856 58.8933 196.643 58.68C196.43 58.4667 196.323 58.1733 196.323 57.8V4.2C196.323 3.82666 196.43 3.53333 196.643 3.32C196.856 3.10666 197.15 3 197.523 3H221.763C225.39 3 228.563 3.74666 231.283 5.24C234.056 6.73333 236.19 8.84 237.683 11.56C239.23 14.2267 240.003 17.32 240.003 20.84C240.003 24.36 239.123 27.4533 237.363 30.12C235.656 32.7333 233.283 34.6533 230.243 35.88C229.976 35.9867 229.896 36.1733 230.003 36.44L240.163 57.56C240.27 57.88 240.323 58.0667 240.323 58.12C240.323 58.3867 240.216 58.6 240.003 58.76C239.79 58.92 239.523 59 239.203 59H225.763ZM211.763 15.88C211.496 15.88 211.363 16.0133 211.363 16.28V25.64C211.363 25.9067 211.496 26.04 211.763 26.04H219.283C220.99 26.04 222.376 25.5867 223.443 24.68C224.51 23.72 225.043 22.4933 225.043 21C225.043 19.4533 224.51 18.2267 223.443 17.32C222.376 16.36 220.99 15.88 219.283 15.88H211.763Z" fill="white" />
	<path d="M282.982 59C282.235 59 281.782 58.6533 281.622 57.96L279.862 51.72C279.755 51.5067 279.622 51.4 279.462 51.4H262.502C262.342 51.4 262.209 51.5067 262.102 51.72L260.342 57.96C260.182 58.6533 259.729 59 258.982 59H245.302C244.342 59 243.995 58.5467 244.262 57.64L261.142 3.96C261.355 3.32 261.809 3 262.502 3H279.462C280.155 3 280.609 3.32 280.822 3.96L297.702 57.64C297.755 57.7467 297.782 57.9067 297.782 58.12C297.782 58.7067 297.409 59 296.662 59H282.982ZM265.622 39.4C265.569 39.72 265.675 39.88 265.942 39.88H275.942C276.262 39.88 276.369 39.72 276.262 39.4L271.142 21.48C271.089 21.32 271.009 21.24 270.902 21.24C270.795 21.24 270.715 21.32 270.662 21.48L265.622 39.4Z" fill="white" />
	<path d="M303.851 59C303.478 59 303.185 58.8933 302.971 58.68C302.758 58.4667 302.651 58.1733 302.651 57.8V4.2C302.651 3.82666 302.758 3.53333 302.971 3.32C303.185 3.10666 303.478 3 303.851 3H324.411C328.731 3 332.545 3.74666 335.851 5.24C339.211 6.73333 341.798 8.84 343.611 11.56C345.425 14.28 346.331 17.4267 346.331 21V41C346.331 44.5733 345.425 47.72 343.611 50.44C341.798 53.16 339.211 55.2667 335.851 56.76C332.545 58.2533 328.731 59 324.411 59H303.851ZM317.691 45.72C317.691 45.9867 317.825 46.12 318.091 46.12H324.971C326.785 46.12 328.278 45.4267 329.451 44.04C330.625 42.6 331.238 40.7333 331.291 38.44V23.56C331.291 21.2667 330.705 19.4267 329.531 18.04C328.358 16.6 326.811 15.88 324.891 15.88H318.091C317.825 15.88 317.691 16.0133 317.691 16.28V45.72Z" fill="white" />
	<path d="M373.784 59.96C369.358 59.96 365.438 59.08 362.024 57.32C358.664 55.5067 356.051 53 354.184 49.8C352.318 46.5467 351.384 42.7867 351.384 38.52V23.48C351.384 19.32 352.318 15.64 354.184 12.44C356.051 9.24 358.664 6.76 362.024 5C365.438 3.24 369.358 2.36 373.784 2.36C378.264 2.36 382.184 3.24 385.544 5C388.958 6.76 391.598 9.24 393.464 12.44C395.331 15.64 396.264 19.32 396.264 23.48V38.52C396.264 42.7867 395.331 46.5467 393.464 49.8C391.598 53 388.958 55.5067 385.544 57.32C382.184 59.08 378.264 59.96 373.784 59.96ZM373.784 47.08C376.024 47.08 377.811 46.36 379.144 44.92C380.531 43.4267 381.224 41.4533 381.224 39V23.32C381.224 20.8667 380.531 18.92 379.144 17.48C377.811 15.9867 376.024 15.24 373.784 15.24C371.598 15.24 369.811 15.9867 368.424 17.48C367.091 18.92 366.424 20.8667 366.424 23.32V39C366.424 41.4533 367.091 43.4267 368.424 44.92C369.811 46.36 371.598 47.08 373.784 47.08Z" fill="white" />
	<path d="M455.408 32.04C456.474 34.4933 457.008 37.16 457.008 40.04C457.008 42.76 456.448 45.48 455.328 48.2C453.888 51.72 451.514 54.52 448.207 56.6C444.901 58.6267 441.061 59.64 436.688 59.64C432.421 59.64 428.607 58.6 425.247 56.52C421.941 54.44 419.514 51.6133 417.967 48.04C417.061 46.0667 416.527 43.72 416.367 41C416.367 40.2 416.768 39.8 417.568 39.8H430.367C431.114 39.8 431.541 40.1733 431.647 40.92C431.861 42.4667 432.207 43.6667 432.688 44.52C433.541 46.0133 434.848 46.76 436.608 46.76C438.368 46.76 439.701 46.0133 440.608 44.52C441.408 43.1333 441.807 41.48 441.807 39.56C441.807 37.5867 441.434 35.9067 440.688 34.52C439.727 32.92 438.341 32.12 436.527 32.12C435.887 32.12 435.194 32.3333 434.448 32.76C433.754 33.1867 432.767 33.88 431.487 34.84C431.274 35.0533 431.008 35.16 430.688 35.16C430.314 35.16 430.021 34.9733 429.807 34.6L423.487 25.64C423.327 25.3733 423.247 25.1067 423.247 24.84C423.247 24.4667 423.434 24.1733 423.807 23.96L435.487 16.36C435.647 16.3067 435.701 16.2267 435.647 16.12C435.594 15.96 435.488 15.88 435.328 15.88H419.168C418.794 15.88 418.501 15.7733 418.288 15.56C418.074 15.3467 417.967 15.0533 417.967 14.68V4.2C417.967 3.82666 418.074 3.53333 418.288 3.32C418.501 3.10666 418.794 3 419.168 3H454.848C455.221 3 455.514 3.10666 455.728 3.32C455.941 3.53333 456.048 3.82666 456.048 4.2V15.96C456.048 16.6533 455.808 17.16 455.328 17.48L446.688 23.48C446.421 23.6933 446.474 23.88 446.848 24.04C450.794 25.2667 453.648 27.9333 455.408 32.04Z" fill="url(#paint0_linear_1_5)" />
	<path d="M463.461 59C463.087 59 462.794 58.8933 462.581 58.68C462.367 58.4667 462.261 58.1733 462.261 57.8V4.2C462.261 3.82666 462.367 3.53333 462.581 3.32C462.794 3.10666 463.087 3 463.461 3H484.021C488.341 3 492.154 3.74666 495.461 5.24C498.821 6.73333 501.407 8.84 503.221 11.56C505.034 14.28 505.941 17.4267 505.941 21V41C505.941 44.5733 505.034 47.72 503.221 50.44C501.407 53.16 498.821 55.2667 495.461 56.76C492.154 58.2533 488.341 59 484.021 59H463.461ZM477.301 45.72C477.301 45.9867 477.434 46.12 477.701 46.12H484.581C486.394 46.12 487.887 45.4267 489.061 44.04C490.234 42.6 490.847 40.7333 490.901 38.44V23.56C490.901 21.2667 490.314 19.4267 489.141 18.04C487.967 16.6 486.421 15.88 484.501 15.88H477.701C477.434 15.88 477.301 16.0133 477.301 16.28V45.72Z" fill="url(#paint1_linear_1_5)" />
	<path d="M569.569 3C569.943 3 570.236 3.10666 570.449 3.32C570.663 3.53333 570.769 3.82666 570.769 4.2V14.76C570.769 15.1333 570.663 15.4267 570.449 15.64C570.236 15.8533 569.943 15.96 569.569 15.96H556.129C555.863 15.96 555.729 16.0933 555.729 16.36V57.8C555.729 58.1733 555.623 58.4667 555.409 58.68C555.196 58.8933 554.903 59 554.529 59H541.889C541.516 59 541.223 58.8933 541.009 58.68C540.796 58.4667 540.689 58.1733 540.689 57.8V16.36C540.689 16.0933 540.556 15.96 540.289 15.96H527.249C526.876 15.96 526.583 15.8533 526.369 15.64C526.156 15.4267 526.049 15.1333 526.049 14.76V4.2C526.049 3.82666 526.156 3.53333 526.369 3.32C526.583 3.10666 526.876 3 527.249 3H569.569Z" fill="white" />
	<path d="M595.894 59.96C591.467 59.96 587.547 59.08 584.134 57.32C580.774 55.5067 578.16 53 576.294 49.8C574.427 46.5467 573.494 42.7867 573.494 38.52V23.48C573.494 19.32 574.427 15.64 576.294 12.44C578.16 9.24 580.774 6.76 584.134 5C587.547 3.24 591.467 2.36 595.894 2.36C600.374 2.36 604.294 3.24 607.654 5C611.067 6.76 613.707 9.24 615.574 12.44C617.44 15.64 618.374 19.32 618.374 23.48V38.52C618.374 42.7867 617.44 46.5467 615.574 49.8C613.707 53 611.067 55.5067 607.654 57.32C604.294 59.08 600.374 59.96 595.894 59.96ZM595.894 47.08C598.134 47.08 599.92 46.36 601.254 44.92C602.64 43.4267 603.334 41.4533 603.334 39V23.32C603.334 20.8667 602.64 18.92 601.254 17.48C599.92 15.9867 598.134 15.24 595.894 15.24C593.707 15.24 591.92 15.9867 590.534 17.48C589.2 18.92 588.534 20.8667 588.534 23.32V39C588.534 41.4533 589.2 43.4267 590.534 44.92C591.92 46.36 593.707 47.08 595.894 47.08Z" fill="white" />
	<path d="M645.501 59.64C641.181 59.64 637.341 58.8133 633.981 57.16C630.675 55.5067 628.115 53.16 626.301 50.12C624.488 47.08 623.581 43.56 623.581 39.56V4.2C623.581 3.82666 623.688 3.53333 623.901 3.32C624.115 3.10666 624.408 3 624.781 3H637.421C637.795 3 638.088 3.10666 638.301 3.32C638.515 3.53333 638.621 3.82666 638.621 4.2V39.56C638.621 41.7467 639.235 43.5067 640.461 44.84C641.741 46.12 643.421 46.76 645.501 46.76C647.528 46.76 649.155 46.0933 650.381 44.76C651.661 43.4267 652.301 41.6933 652.301 39.56V4.2C652.301 3.82666 652.408 3.53333 652.621 3.32C652.835 3.10666 653.128 3 653.501 3H666.141C666.515 3 666.808 3.10666 667.021 3.32C667.235 3.53333 667.341 3.82666 667.341 4.2V39.56C667.341 43.56 666.435 47.08 664.621 50.12C662.808 53.16 660.248 55.5067 656.941 57.16C653.635 58.8133 649.821 59.64 645.501 59.64Z" fill="white" />
	<path d="M702.716 59C702.023 59 701.57 58.7067 701.356 58.12L692.556 37.8C692.45 37.5867 692.29 37.48 692.076 37.48H688.716C688.45 37.48 688.316 37.6133 688.316 37.88V57.8C688.316 58.1733 688.21 58.4667 687.996 58.68C687.783 58.8933 687.49 59 687.116 59H674.476C674.103 59 673.81 58.8933 673.596 58.68C673.383 58.4667 673.276 58.1733 673.276 57.8V4.2C673.276 3.82666 673.383 3.53333 673.596 3.32C673.81 3.10666 674.103 3 674.476 3H698.716C702.343 3 705.516 3.74666 708.236 5.24C711.01 6.73333 713.143 8.84 714.636 11.56C716.183 14.2267 716.956 17.32 716.956 20.84C716.956 24.36 716.076 27.4533 714.316 30.12C712.61 32.7333 710.236 34.6533 707.196 35.88C706.93 35.9867 706.85 36.1733 706.956 36.44L717.116 57.56C717.223 57.88 717.276 58.0667 717.276 58.12C717.276 58.3867 717.17 58.6 716.956 58.76C716.743 58.92 716.476 59 716.156 59H702.716ZM688.716 15.88C688.45 15.88 688.316 16.0133 688.316 16.28V25.64C688.316 25.9067 688.45 26.04 688.716 26.04H696.236C697.943 26.04 699.33 25.5867 700.396 24.68C701.463 23.72 701.996 22.4933 701.996 21C701.996 19.4533 701.463 18.2267 700.396 17.32C699.33 16.36 697.943 15.88 696.236 15.88H688.716Z" fill="white" />
	<path d="M743.695 59.64C739.215 59.64 735.295 58.92 731.935 57.48C728.575 55.9867 725.962 53.88 724.095 51.16C722.282 48.44 721.375 45.2933 721.375 41.72V40.6C721.375 40.2267 721.482 39.9333 721.695 39.72C721.908 39.5067 722.202 39.4 722.575 39.4H734.975C735.348 39.4 735.642 39.5067 735.855 39.72C736.068 39.9333 736.175 40.2267 736.175 40.6V41.08C736.175 42.5733 736.948 43.9067 738.495 45.08C740.095 46.2 742.202 46.76 744.815 46.76C746.788 46.76 748.202 46.36 749.055 45.56C749.908 44.7067 750.335 43.7733 750.335 42.76C750.335 41.5867 749.802 40.7067 748.735 40.12C747.668 39.5333 745.722 38.8133 742.895 37.96L740.575 37.32C735.295 35.72 730.868 33.5867 727.295 30.92C723.722 28.2533 721.935 24.3867 721.935 19.32C721.935 15.96 722.842 13 724.655 10.44C726.468 7.82666 728.948 5.82666 732.095 4.44C735.295 3.05333 738.868 2.36 742.815 2.36C746.975 2.36 750.735 3.13333 754.095 4.68C757.508 6.22666 760.175 8.41333 762.095 11.24C764.068 14.0667 765.055 17.2933 765.055 20.92V21.64C765.055 22.0133 764.948 22.3067 764.735 22.52C764.522 22.7333 764.228 22.84 763.855 22.84H751.455C751.082 22.84 750.788 22.7333 750.575 22.52C750.362 22.3067 750.255 22.0133 750.255 21.64V21.56C750.255 19.96 749.535 18.52 748.095 17.24C746.655 15.9067 744.708 15.24 742.255 15.24C740.548 15.24 739.188 15.5867 738.175 16.28C737.215 16.9733 736.735 17.9333 736.735 19.16C736.735 20.12 737.082 20.9467 737.775 21.64C738.522 22.28 739.642 22.92 741.135 23.56C742.628 24.1467 744.922 24.92 748.015 25.88C748.442 26.04 750.308 26.6267 753.615 27.64C756.975 28.6 759.775 30.3867 762.015 33C764.255 35.56 765.375 38.68 765.375 42.36C765.375 45.9333 764.468 49.0267 762.655 51.64C760.842 54.2 758.308 56.1733 755.055 57.56C751.802 58.9467 748.015 59.64 743.695 59.64Z" fill="white" />
	<path d="M24.48 59.64C20.1067 59.64 16.24 58.7867 12.88 57.08C9.57333 55.3733 6.98666 52.9733 5.11999 49.88C3.30666 46.7333 2.39999 43.1067 2.39999 39V22.84C2.39999 18.7867 3.30666 15.2133 5.11999 12.12C6.98666 9.02666 9.57333 6.62666 12.88 4.91999C16.24 3.21333 20.1067 2.36 24.48 2.36C28.8533 2.36 32.6933 3.16 36 4.76C39.36 6.36 41.9467 8.62667 43.76 11.56C45.6267 14.44 46.56 17.8 46.56 21.64C46.56 22.12 46.16 22.4133 45.36 22.52L32.72 23.32H32.48C31.84 23.32 31.52 23.0267 31.52 22.44C31.52 20.2533 30.88 18.52 29.6 17.24C28.32 15.9067 26.6133 15.24 24.48 15.24C22.3467 15.24 20.64 15.9067 19.36 17.24C18.08 18.52 17.44 20.2533 17.44 22.44V39.64C17.44 41.7733 18.08 43.5067 19.36 44.84C20.64 46.12 22.3467 46.76 24.48 46.76C26.6133 46.76 28.32 46.12 29.6 44.84C30.88 43.5067 31.52 41.7733 31.52 39.64C31.52 39.32 31.6267 39.08 31.84 38.92C32.0533 38.76 32.3467 38.7067 32.72 38.76L45.36 39.4C46.16 39.4533 46.56 39.72 46.56 40.2C46.56 44.04 45.6267 47.4267 43.76 50.36C41.9467 53.2933 39.36 55.5867 36 57.24C32.6933 58.84 28.8533 59.64 24.48 59.64Z" stroke="#900C93" stroke-width="2" mask="url(#path-1-outside-1_1_5)" />
	<path d="M73.55 59.96C69.1233 59.96 65.2033 59.08 61.79 57.32C58.43 55.5067 55.8167 53 53.95 49.8C52.0833 46.5467 51.15 42.7867 51.15 38.52V23.48C51.15 19.32 52.0833 15.64 53.95 12.44C55.8167 9.24 58.43 6.76 61.79 5C65.2033 3.24 69.1233 2.36 73.55 2.36C78.03 2.36 81.95 3.24 85.31 5C88.7233 6.76 91.3633 9.24 93.23 12.44C95.0967 15.64 96.03 19.32 96.03 23.48V38.52C96.03 42.7867 95.0967 46.5467 93.23 49.8C91.3633 53 88.7233 55.5067 85.31 57.32C81.95 59.08 78.03 59.96 73.55 59.96ZM73.55 47.08C75.79 47.08 77.5767 46.36 78.91 44.92C80.2967 43.4267 80.99 41.4533 80.99 39V23.32C80.99 20.8667 80.2967 18.92 78.91 17.48C77.5767 15.9867 75.79 15.24 73.55 15.24C71.3633 15.24 69.5767 15.9867 68.19 17.48C66.8567 18.92 66.19 20.8667 66.19 23.32V39C66.19 41.4533 66.8567 43.4267 68.19 44.92C69.5767 46.36 71.3633 47.08 73.55 47.08Z" stroke="#900C93" stroke-width="2" mask="url(#path-1-outside-1_1_5)" />
	<path d="M102.757 59C102.384 59 102.091 58.8933 101.877 58.68C101.664 58.4667 101.557 58.1733 101.557 57.8V4.2C101.557 3.82666 101.664 3.53333 101.877 3.32C102.091 3.10666 102.384 3 102.757 3H115.397C115.771 3 116.064 3.10666 116.277 3.32C116.491 3.53333 116.597 3.82666 116.597 4.2V45.72C116.597 45.9867 116.731 46.12 116.997 46.12H141.717C142.091 46.12 142.384 46.2267 142.598 46.44C142.811 46.6533 142.918 46.9467 142.918 47.32V57.8C142.918 58.1733 142.811 58.4667 142.598 58.68C142.384 58.8933 142.091 59 141.717 59H102.757Z" stroke="#900C93" stroke-width="2" mask="url(#path-1-outside-1_1_5)" />
	<path d="M168.316 59.96C163.889 59.96 159.969 59.08 156.556 57.32C153.196 55.5067 150.582 53 148.716 49.8C146.849 46.5467 145.916 42.7867 145.916 38.52V23.48C145.916 19.32 146.849 15.64 148.716 12.44C150.582 9.24 153.196 6.76 156.556 5C159.969 3.24 163.889 2.36 168.316 2.36C172.796 2.36 176.716 3.24 180.076 5C183.489 6.76 186.129 9.24 187.996 12.44C189.862 15.64 190.796 19.32 190.796 23.48V38.52C190.796 42.7867 189.862 46.5467 187.996 49.8C186.129 53 183.489 55.5067 180.076 57.32C176.716 59.08 172.796 59.96 168.316 59.96ZM168.316 47.08C170.556 47.08 172.342 46.36 173.676 44.92C175.062 43.4267 175.756 41.4533 175.756 39V23.32C175.756 20.8667 175.062 18.92 173.676 17.48C172.342 15.9867 170.556 15.24 168.316 15.24C166.129 15.24 164.342 15.9867 162.956 17.48C161.622 18.92 160.956 20.8667 160.956 23.32V39C160.956 41.4533 161.622 43.4267 162.956 44.92C164.342 46.36 166.129 47.08 168.316 47.08Z" stroke="#900C93" stroke-width="2" mask="url(#path-1-outside-1_1_5)" />
	<path d="M225.763 59C225.07 59 224.616 58.7067 224.403 58.12L215.603 37.8C215.496 37.5867 215.336 37.48 215.123 37.48H211.763C211.496 37.48 211.363 37.6133 211.363 37.88V57.8C211.363 58.1733 211.256 58.4667 211.043 58.68C210.83 58.8933 210.536 59 210.163 59H197.523C197.15 59 196.856 58.8933 196.643 58.68C196.43 58.4667 196.323 58.1733 196.323 57.8V4.2C196.323 3.82666 196.43 3.53333 196.643 3.32C196.856 3.10666 197.15 3 197.523 3H221.763C225.39 3 228.563 3.74666 231.283 5.24C234.056 6.73333 236.19 8.84 237.683 11.56C239.23 14.2267 240.003 17.32 240.003 20.84C240.003 24.36 239.123 27.4533 237.363 30.12C235.656 32.7333 233.283 34.6533 230.243 35.88C229.976 35.9867 229.896 36.1733 230.003 36.44L240.163 57.56C240.27 57.88 240.323 58.0667 240.323 58.12C240.323 58.3867 240.216 58.6 240.003 58.76C239.79 58.92 239.523 59 239.203 59H225.763ZM211.763 15.88C211.496 15.88 211.363 16.0133 211.363 16.28V25.64C211.363 25.9067 211.496 26.04 211.763 26.04H219.283C220.99 26.04 222.376 25.5867 223.443 24.68C224.51 23.72 225.043 22.4933 225.043 21C225.043 19.4533 224.51 18.2267 223.443 17.32C222.376 16.36 220.99 15.88 219.283 15.88H211.763Z" stroke="#900C93" stroke-width="2" mask="url(#path-1-outside-1_1_5)" />
	<path d="M282.982 59C282.235 59 281.782 58.6533 281.622 57.96L279.862 51.72C279.755 51.5067 279.622 51.4 279.462 51.4H262.502C262.342 51.4 262.209 51.5067 262.102 51.72L260.342 57.96C260.182 58.6533 259.729 59 258.982 59H245.302C244.342 59 243.995 58.5467 244.262 57.64L261.142 3.96C261.355 3.32 261.809 3 262.502 3H279.462C280.155 3 280.609 3.32 280.822 3.96L297.702 57.64C297.755 57.7467 297.782 57.9067 297.782 58.12C297.782 58.7067 297.409 59 296.662 59H282.982ZM265.622 39.4C265.569 39.72 265.675 39.88 265.942 39.88H275.942C276.262 39.88 276.369 39.72 276.262 39.4L271.142 21.48C271.089 21.32 271.009 21.24 270.902 21.24C270.795 21.24 270.715 21.32 270.662 21.48L265.622 39.4Z" stroke="#900C93" stroke-width="2" mask="url(#path-1-outside-1_1_5)" />
	<path d="M303.851 59C303.478 59 303.185 58.8933 302.971 58.68C302.758 58.4667 302.651 58.1733 302.651 57.8V4.2C302.651 3.82666 302.758 3.53333 302.971 3.32C303.185 3.10666 303.478 3 303.851 3H324.411C328.731 3 332.545 3.74666 335.851 5.24C339.211 6.73333 341.798 8.84 343.611 11.56C345.425 14.28 346.331 17.4267 346.331 21V41C346.331 44.5733 345.425 47.72 343.611 50.44C341.798 53.16 339.211 55.2667 335.851 56.76C332.545 58.2533 328.731 59 324.411 59H303.851ZM317.691 45.72C317.691 45.9867 317.825 46.12 318.091 46.12H324.971C326.785 46.12 328.278 45.4267 329.451 44.04C330.625 42.6 331.238 40.7333 331.291 38.44V23.56C331.291 21.2667 330.705 19.4267 329.531 18.04C328.358 16.6 326.811 15.88 324.891 15.88H318.091C317.825 15.88 317.691 16.0133 317.691 16.28V45.72Z" stroke="#900C93" stroke-width="2" mask="url(#path-1-outside-1_1_5)" />
	<path d="M373.784 59.96C369.358 59.96 365.438 59.08 362.024 57.32C358.664 55.5067 356.051 53 354.184 49.8C352.318 46.5467 351.384 42.7867 351.384 38.52V23.48C351.384 19.32 352.318 15.64 354.184 12.44C356.051 9.24 358.664 6.76 362.024 5C365.438 3.24 369.358 2.36 373.784 2.36C378.264 2.36 382.184 3.24 385.544 5C388.958 6.76 391.598 9.24 393.464 12.44C395.331 15.64 396.264 19.32 396.264 23.48V38.52C396.264 42.7867 395.331 46.5467 393.464 49.8C391.598 53 388.958 55.5067 385.544 57.32C382.184 59.08 378.264 59.96 373.784 59.96ZM373.784 47.08C376.024 47.08 377.811 46.36 379.144 44.92C380.531 43.4267 381.224 41.4533 381.224 39V23.32C381.224 20.8667 380.531 18.92 379.144 17.48C377.811 15.9867 376.024 15.24 373.784 15.24C371.598 15.24 369.811 15.9867 368.424 17.48C367.091 18.92 366.424 20.8667 366.424 23.32V39C366.424 41.4533 367.091 43.4267 368.424 44.92C369.811 46.36 371.598 47.08 373.784 47.08Z" stroke="#900C93" stroke-width="2" mask="url(#path-1-outside-1_1_5)" />
	<path d="M455.408 32.04C456.474 34.4933 457.008 37.16 457.008 40.04C457.008 42.76 456.448 45.48 455.328 48.2C453.888 51.72 451.514 54.52 448.207 56.6C444.901 58.6267 441.061 59.64 436.688 59.64C432.421 59.64 428.607 58.6 425.247 56.52C421.941 54.44 419.514 51.6133 417.967 48.04C417.061 46.0667 416.527 43.72 416.367 41C416.367 40.2 416.768 39.8 417.568 39.8H430.367C431.114 39.8 431.541 40.1733 431.647 40.92C431.861 42.4667 432.207 43.6667 432.688 44.52C433.541 46.0133 434.848 46.76 436.608 46.76C438.368 46.76 439.701 46.0133 440.608 44.52C441.408 43.1333 441.807 41.48 441.807 39.56C441.807 37.5867 441.434 35.9067 440.688 34.52C439.727 32.92 438.341 32.12 436.527 32.12C435.887 32.12 435.194 32.3333 434.448 32.76C433.754 33.1867 432.767 33.88 431.487 34.84C431.274 35.0533 431.008 35.16 430.688 35.16C430.314 35.16 430.021 34.9733 429.807 34.6L423.487 25.64C423.327 25.3733 423.247 25.1067 423.247 24.84C423.247 24.4667 423.434 24.1733 423.807 23.96L435.487 16.36C435.647 16.3067 435.701 16.2267 435.647 16.12C435.594 15.96 435.488 15.88 435.328 15.88H419.168C418.794 15.88 418.501 15.7733 418.288 15.56C418.074 15.3467 417.967 15.0533 417.967 14.68V4.2C417.967 3.82666 418.074 3.53333 418.288 3.32C418.501 3.10666 418.794 3 419.168 3H454.848C455.221 3 455.514 3.10666 455.728 3.32C455.941 3.53333 456.048 3.82666 456.048 4.2V15.96C456.048 16.6533 455.808 17.16 455.328 17.48L446.688 23.48C446.421 23.6933 446.474 23.88 446.848 24.04C450.794 25.2667 453.648 27.9333 455.408 32.04Z" stroke="#900C93" stroke-width="2" mask="url(#path-1-outside-1_1_5)" />
	<path d="M463.461 59C463.087 59 462.794 58.8933 462.581 58.68C462.367 58.4667 462.261 58.1733 462.261 57.8V4.2C462.261 3.82666 462.367 3.53333 462.581 3.32C462.794 3.10666 463.087 3 463.461 3H484.021C488.341 3 492.154 3.74666 495.461 5.24C498.821 6.73333 501.407 8.84 503.221 11.56C505.034 14.28 505.941 17.4267 505.941 21V41C505.941 44.5733 505.034 47.72 503.221 50.44C501.407 53.16 498.821 55.2667 495.461 56.76C492.154 58.2533 488.341 59 484.021 59H463.461ZM477.301 45.72C477.301 45.9867 477.434 46.12 477.701 46.12H484.581C486.394 46.12 487.887 45.4267 489.061 44.04C490.234 42.6 490.847 40.7333 490.901 38.44V23.56C490.901 21.2667 490.314 19.4267 489.141 18.04C487.967 16.6 486.421 15.88 484.501 15.88H477.701C477.434 15.88 477.301 16.0133 477.301 16.28V45.72Z" stroke="#900C93" stroke-width="2" mask="url(#path-1-outside-1_1_5)" />
	<path d="M569.569 3C569.943 3 570.236 3.10666 570.449 3.32C570.663 3.53333 570.769 3.82666 570.769 4.2V14.76C570.769 15.1333 570.663 15.4267 570.449 15.64C570.236 15.8533 569.943 15.96 569.569 15.96H556.129C555.863 15.96 555.729 16.0933 555.729 16.36V57.8C555.729 58.1733 555.623 58.4667 555.409 58.68C555.196 58.8933 554.903 59 554.529 59H541.889C541.516 59 541.223 58.8933 541.009 58.68C540.796 58.4667 540.689 58.1733 540.689 57.8V16.36C540.689 16.0933 540.556 15.96 540.289 15.96H527.249C526.876 15.96 526.583 15.8533 526.369 15.64C526.156 15.4267 526.049 15.1333 526.049 14.76V4.2C526.049 3.82666 526.156 3.53333 526.369 3.32C526.583 3.10666 526.876 3 527.249 3H569.569Z" stroke="#900C93" stroke-width="2" mask="url(#path-1-outside-1_1_5)" />
	<path d="M595.894 59.96C591.467 59.96 587.547 59.08 584.134 57.32C580.774 55.5067 578.16 53 576.294 49.8C574.427 46.5467 573.494 42.7867 573.494 38.52V23.48C573.494 19.32 574.427 15.64 576.294 12.44C578.16 9.24 580.774 6.76 584.134 5C587.547 3.24 591.467 2.36 595.894 2.36C600.374 2.36 604.294 3.24 607.654 5C611.067 6.76 613.707 9.24 615.574 12.44C617.44 15.64 618.374 19.32 618.374 23.48V38.52C618.374 42.7867 617.44 46.5467 615.574 49.8C613.707 53 611.067 55.5067 607.654 57.32C604.294 59.08 600.374 59.96 595.894 59.96ZM595.894 47.08C598.134 47.08 599.92 46.36 601.254 44.92C602.64 43.4267 603.334 41.4533 603.334 39V23.32C603.334 20.8667 602.64 18.92 601.254 17.48C599.92 15.9867 598.134 15.24 595.894 15.24C593.707 15.24 591.92 15.9867 590.534 17.48C589.2 18.92 588.534 20.8667 588.534 23.32V39C588.534 41.4533 589.2 43.4267 590.534 44.92C591.92 46.36 593.707 47.08 595.894 47.08Z" stroke="#900C93" stroke-width="2" mask="url(#path-1-outside-1_1_5)" />
	<path d="M645.501 59.64C641.181 59.64 637.341 58.8133 633.981 57.16C630.675 55.5067 628.115 53.16 626.301 50.12C624.488 47.08 623.581 43.56 623.581 39.56V4.2C623.581 3.82666 623.688 3.53333 623.901 3.32C624.115 3.10666 624.408 3 624.781 3H637.421C637.795 3 638.088 3.10666 638.301 3.32C638.515 3.53333 638.621 3.82666 638.621 4.2V39.56C638.621 41.7467 639.235 43.5067 640.461 44.84C641.741 46.12 643.421 46.76 645.501 46.76C647.528 46.76 649.155 46.0933 650.381 44.76C651.661 43.4267 652.301 41.6933 652.301 39.56V4.2C652.301 3.82666 652.408 3.53333 652.621 3.32C652.835 3.10666 653.128 3 653.501 3H666.141C666.515 3 666.808 3.10666 667.021 3.32C667.235 3.53333 667.341 3.82666 667.341 4.2V39.56C667.341 43.56 666.435 47.08 664.621 50.12C662.808 53.16 660.248 55.5067 656.941 57.16C653.635 58.8133 649.821 59.64 645.501 59.64Z" stroke="#900C93" stroke-width="2" mask="url(#path-1-outside-1_1_5)" />
	<path d="M702.716 59C702.023 59 701.57 58.7067 701.356 58.12L692.556 37.8C692.45 37.5867 692.29 37.48 692.076 37.48H688.716C688.45 37.48 688.316 37.6133 688.316 37.88V57.8C688.316 58.1733 688.21 58.4667 687.996 58.68C687.783 58.8933 687.49 59 687.116 59H674.476C674.103 59 673.81 58.8933 673.596 58.68C673.383 58.4667 673.276 58.1733 673.276 57.8V4.2C673.276 3.82666 673.383 3.53333 673.596 3.32C673.81 3.10666 674.103 3 674.476 3H698.716C702.343 3 705.516 3.74666 708.236 5.24C711.01 6.73333 713.143 8.84 714.636 11.56C716.183 14.2267 716.956 17.32 716.956 20.84C716.956 24.36 716.076 27.4533 714.316 30.12C712.61 32.7333 710.236 34.6533 707.196 35.88C706.93 35.9867 706.85 36.1733 706.956 36.44L717.116 57.56C717.223 57.88 717.276 58.0667 717.276 58.12C717.276 58.3867 717.17 58.6 716.956 58.76C716.743 58.92 716.476 59 716.156 59H702.716ZM688.716 15.88C688.45 15.88 688.316 16.0133 688.316 16.28V25.64C688.316 25.9067 688.45 26.04 688.716 26.04H696.236C697.943 26.04 699.33 25.5867 700.396 24.68C701.463 23.72 701.996 22.4933 701.996 21C701.996 19.4533 701.463 18.2267 700.396 17.32C699.33 16.36 697.943 15.88 696.236 15.88H688.716Z" stroke="#900C93" stroke-width="2" mask="url(#path-1-outside-1_1_5)" />
	<path d="M743.695 59.64C739.215 59.64 735.295 58.92 731.935 57.48C728.575 55.9867 725.962 53.88 724.095 51.16C722.282 48.44 721.375 45.2933 721.375 41.72V40.6C721.375 40.2267 721.482 39.9333 721.695 39.72C721.908 39.5067 722.202 39.4 722.575 39.4H734.975C735.348 39.4 735.642 39.5067 735.855 39.72C736.068 39.9333 736.175 40.2267 736.175 40.6V41.08C736.175 42.5733 736.948 43.9067 738.495 45.08C740.095 46.2 742.202 46.76 744.815 46.76C746.788 46.76 748.202 46.36 749.055 45.56C749.908 44.7067 750.335 43.7733 750.335 42.76C750.335 41.5867 749.802 40.7067 748.735 40.12C747.668 39.5333 745.722 38.8133 742.895 37.96L740.575 37.32C735.295 35.72 730.868 33.5867 727.295 30.92C723.722 28.2533 721.935 24.3867 721.935 19.32C721.935 15.96 722.842 13 724.655 10.44C726.468 7.82666 728.948 5.82666 732.095 4.44C735.295 3.05333 738.868 2.36 742.815 2.36C746.975 2.36 750.735 3.13333 754.095 4.68C757.508 6.22666 760.175 8.41333 762.095 11.24C764.068 14.0667 765.055 17.2933 765.055 20.92V21.64C765.055 22.0133 764.948 22.3067 764.735 22.52C764.522 22.7333 764.228 22.84 763.855 22.84H751.455C751.082 22.84 750.788 22.7333 750.575 22.52C750.362 22.3067 750.255 22.0133 750.255 21.64V21.56C750.255 19.96 749.535 18.52 748.095 17.24C746.655 15.9067 744.708 15.24 742.255 15.24C740.548 15.24 739.188 15.5867 738.175 16.28C737.215 16.9733 736.735 17.9333 736.735 19.16C736.735 20.12 737.082 20.9467 737.775 21.64C738.522 22.28 739.642 22.92 741.135 23.56C742.628 24.1467 744.922 24.92 748.015 25.88C748.442 26.04 750.308 26.6267 753.615 27.64C756.975 28.6 759.775 30.3867 762.015 33C764.255 35.56 765.375 38.68 765.375 42.36C765.375 45.9333 764.468 49.0267 762.655 51.64C760.842 54.2 758.308 56.1733 755.055 57.56C751.802 58.9467 748.015 59.64 743.695 59.64Z" stroke="#900C93" stroke-width="2" mask="url(#path-1-outside-1_1_5)" />
	<defs>
		<linearGradient id="paint0_linear_1_5" x1="409" y1="9.00002" x2="508" y2="67" gradientUnits="userSpaceOnUse">
			<stop stop-color="#1A00BB" />
			<stop offset="0.5" stop-color="#BD00FF" />
			<stop offset="1" stop-color="#FF7A00" />
		</linearGradient>
		<linearGradient id="paint1_linear_1_5" x1="409" y1="9.00002" x2="508" y2="67" gradientUnits="userSpaceOnUse">
			<stop stop-color="#1A00BB" />
			<stop offset="0.5" stop-color="#BD00FF" />
			<stop offset="1" stop-color="#FF7A00" />
		</linearGradient>
	</defs>
</svg>
